<svg id="Layer_1" enable-background="new 0 0 512.017 512.017" height="512" viewBox="0 0 512.017 512.017" width="512" xmlns="http://www.w3.org/2000/svg"><g><g fill="#e2e0e0"><path d="m416.009 400.017c-43.124 0-44.734-16-80.01-16-35.166 0-36.887 16-80 16-43.117 0-44.72-16-79.99-16-13.084 0-20.74 1.833-28.21 4.584-8.292 3.053-17.49-1.192-20.544-9.484s1.192-17.49 9.484-20.544c8.801-3.242 20.35-6.556 39.27-6.556 42.834 0 45.059 16 79.99 16 35.166 0 36.887-16 80-16 42.841 0 45.072 16 80.01 16 35.165 0 36.887-16 80-16 8.836 0 16 7.164 16 16s-7.164 16-16 16c-35.166 0-36.887 16-80 16z"/><path d="m77.79 398.83c-28.208-3.987-31.349-14.813-61.781-14.813-8.836 0-16-7.164-16-16s7.164-16 16-16c36.796 0 44.898 12.109 66.259 15.127 8.75 1.237 14.84 9.332 13.604 18.082-1.235 8.735-9.313 14.839-18.082 13.604z"/><path d="m479.248 441.159c-7.792 0-14.618-5.699-15.804-13.637-1.306-8.74 4.72-16.883 13.459-18.189 5.924-.885 12.174-1.316 19.105-1.316 8.836 0 16 7.164 16 16s-7.164 16-16 16c-10.355 0-14.038 1.142-16.76 1.142z"/><path d="m416.009 456.017c-40.044 0-45.164-14.089-72.977-15.79-8.82-.54-15.533-8.127-14.993-16.947s8.125-15.535 16.947-14.993c35.536 2.174 37.792 15.73 71.023 15.73 22.578-.061 22.643 32 0 32z"/><path d="m255.999 456.017c-43.117 0-44.72-16-79.99-16-35.166 0-36.887 16-80 16-43.114 0-44.697-16-80-16-8.836 0-16-7.164-16-16s7.164-16 16-16c43.114 0 44.697 16 80 16 35.166 0 36.887-16 80-16 42.834 0 45.059 16 79.99 16 8.765 0 15.862-.844 22.335-2.657 8.508-2.382 17.339 2.583 19.722 11.092s-2.583 17.339-11.092 19.722c-9.361 2.622-19.2 3.843-30.965 3.843z"/><path d="m416.009 512.017c-43.124 0-44.734-16-80.01-16-32.903 0-36.211 13.89-72.101 15.797-9.149.49-16.854-6.805-16.854-15.978 0-8.604 6.787-15.622 15.301-15.985 28.646-1.564 33.182-15.834 73.654-15.834 42.841 0 45.072 16 80.01 16 35.166 0 36.887-16 80-16 8.836 0 16 7.164 16 16s-7.164 16-16 16c-35.166 0-36.887 16-80 16z"/><path d="m96.009 512.017c-43.114 0-44.697-16-80-16-8.836 0-16-7.164-16-16s7.164-16 16-16c43.113 0 44.698 16 80 16 35.166 0 36.887-16 80-16 10.571 0 19.836 1.033 28.326 3.159 8.572 2.146 13.781 10.835 11.635 19.407-2.146 8.573-10.838 13.782-19.407 11.635-5.997-1.502-12.528-2.201-20.554-2.201-35.165 0-36.888 16-80 16z"/><path d="m512.009 249.017c0 48.52-39.48 88-88 88h-312c-61.76 0-112-50.24-112-112 0-52.9 36.98-98.317 88.08-109.44 2.34-64.12 55.24-115.56 119.92-115.56 48.544 0 89.509 28.545 108.62 69 62.788-18.688 124.671 29.786 123.37 93.46 40.92 7.54 72.01 43.48 72.01 86.54z"/></g><path d="m314.659 65.057c-9.386-.32-19.912.949-30.03 3.96-17.228-36.469-51.78-62.543-92.57-67.94 50.682-6.796 99.356 19.043 122.6 63.98z" fill="#cecccc"/><path d="m512.009 249.017c0 48.52-39.48 88-88 88h-32c48.52 0 88-39.48 88-88 0-43.06-31.09-79-72.01-86.54.953-46.633-33.027-88.191-79.94-96.11 59.354-10.136 113.149 36.95 111.94 96.11 40.92 7.54 72.01 43.48 72.01 86.54z" fill="#cecccc"/></g></svg>