<svg id="Capa_1" enable-background="new 0 0 497 497" height="512" viewBox="0 0 497 497" width="512" xmlns="http://www.w3.org/2000/svg"><g><path d="m422 68.5v150c41.421 0 75-33.579 75-75s-33.579-75-75-75z" fill="#8adefd"/><path d="m467 143.5c0-41.421-20.147-75-45-75-6.838 0-13.455.933-19.75 2.647-13.458-41.299-52.272-71.147-98.062-71.147s-84.604 29.848-98.063 71.147l42.375 147.353h173.5c24.853 0 45-33.579 45-75z" fill="#bcf7fc"/><path d="m248.5 98.5v120c33.137 0 60-26.863 60-60s-26.863-60-60-60z" fill="#58c4fe"/><path d="m278.5 158.5c0-33.137-13.431-60-30-60-5.475 0-10.773.748-15.813 2.121-10.768-33.038-41.805-56.921-78.437-56.921s-67.669 23.883-78.437 56.921c-5.04-1.373-10.338-2.121-15.813-2.121-33.137 0-60 26.863-60 60s26.863 60 60 60h188.5c16.569 0 30-26.863 30-60z" fill="#8adefd"/><path d="m248.5 278.5c-4.143 0-7.5-3.358-7.5-7.5v-30c0-4.142 3.357-7.5 7.5-7.5s7.5 3.358 7.5 7.5v30c0 4.142-3.357 7.5-7.5 7.5z" fill="#8adefd"/><path d="m185.667 278.5c-4.143 0-7.5-3.358-7.5-7.5v-30c0-4.142 3.357-7.5 7.5-7.5s7.5 3.358 7.5 7.5v30c0 4.142-3.357 7.5-7.5 7.5z" fill="#8adefd"/><path d="m311.333 278.5c-4.143 0-7.5-3.358-7.5-7.5v-30c0-4.142 3.357-7.5 7.5-7.5s7.5 3.358 7.5 7.5v30c0 4.142-3.357 7.5-7.5 7.5z" fill="#8adefd"/><path d="m374.167 278.5c-4.143 0-7.5-3.358-7.5-7.5v-30c0-4.142 3.357-7.5 7.5-7.5s7.5 3.358 7.5 7.5v30c0 4.142-3.357 7.5-7.5 7.5z" fill="#8adefd"/><path d="m437 278.5c-4.143 0-7.5-3.358-7.5-7.5v-30c0-4.142 3.357-7.5 7.5-7.5s7.5 3.358 7.5 7.5v30c0 4.142-3.357 7.5-7.5 7.5z" fill="#58c4fe"/><g fill="#8adefd"><path d="m60 278.5c-4.143 0-7.5-3.358-7.5-7.5v-30c0-4.142 3.357-7.5 7.5-7.5s7.5 3.358 7.5 7.5v30c0 4.142-3.357 7.5-7.5 7.5z"/><path d="m122.833 278.5c-4.143 0-7.5-3.358-7.5-7.5v-30c0-4.142 3.357-7.5 7.5-7.5s7.5 3.358 7.5 7.5v30c0 4.142-3.357 7.5-7.5 7.5z"/><path d="m248.5 424.167c-4.143 0-7.5-3.358-7.5-7.5v-30c0-4.142 3.357-7.5 7.5-7.5s7.5 3.358 7.5 7.5v30c0 4.142-3.357 7.5-7.5 7.5z"/><path d="m185.667 424.167c-4.143 0-7.5-3.358-7.5-7.5v-30c0-4.142 3.357-7.5 7.5-7.5s7.5 3.358 7.5 7.5v30c0 4.142-3.357 7.5-7.5 7.5z"/><path d="m311.333 424.167c-4.143 0-7.5-3.358-7.5-7.5v-30c0-4.142 3.357-7.5 7.5-7.5s7.5 3.358 7.5 7.5v30c0 4.142-3.357 7.5-7.5 7.5z"/><path d="m374.167 424.167c-4.143 0-7.5-3.358-7.5-7.5v-30c0-4.142 3.357-7.5 7.5-7.5s7.5 3.358 7.5 7.5v30c0 4.142-3.357 7.5-7.5 7.5z"/></g><path d="m437 424.167c-4.143 0-7.5-3.358-7.5-7.5v-30c0-4.142 3.357-7.5 7.5-7.5s7.5 3.358 7.5 7.5v30c0 4.142-3.357 7.5-7.5 7.5z" fill="#58c4fe"/><path d="m60 424.167c-4.143 0-7.5-3.358-7.5-7.5v-30c0-4.142 3.357-7.5 7.5-7.5s7.5 3.358 7.5 7.5v30c0 4.142-3.357 7.5-7.5 7.5z" fill="#8adefd"/><path d="m122.833 424.167c-4.143 0-7.5-3.358-7.5-7.5v-30c0-4.142 3.357-7.5 7.5-7.5s7.5 3.358 7.5 7.5v30c0 4.142-3.357 7.5-7.5 7.5z" fill="#8adefd"/><path d="m279.917 351.333c-4.143 0-7.5-3.358-7.5-7.5v-30c0-4.142 3.357-7.5 7.5-7.5s7.5 3.358 7.5 7.5v30c0 4.143-3.357 7.5-7.5 7.5z" fill="#8adefd"/><path d="m217.083 351.333c-4.143 0-7.5-3.358-7.5-7.5v-30c0-4.142 3.357-7.5 7.5-7.5s7.5 3.358 7.5 7.5v30c0 4.143-3.357 7.5-7.5 7.5z" fill="#8adefd"/><path d="m342.75 351.333c-4.143 0-7.5-3.358-7.5-7.5v-30c0-4.142 3.357-7.5 7.5-7.5s7.5 3.358 7.5 7.5v30c0 4.143-3.357 7.5-7.5 7.5z" fill="#8adefd"/><path d="m405.583 351.333c-4.143 0-7.5-3.358-7.5-7.5v-30c0-4.142 3.357-7.5 7.5-7.5s7.5 3.358 7.5 7.5v30c0 4.143-3.357 7.5-7.5 7.5z" fill="#58c4fe"/><path d="m91.417 351.333c-4.143 0-7.5-3.358-7.5-7.5v-30c0-4.142 3.357-7.5 7.5-7.5s7.5 3.358 7.5 7.5v30c0 4.143-3.357 7.5-7.5 7.5z" fill="#8adefd"/><path d="m154.25 351.333c-4.143 0-7.5-3.358-7.5-7.5v-30c0-4.142 3.357-7.5 7.5-7.5s7.5 3.358 7.5 7.5v30c0 4.143-3.357 7.5-7.5 7.5z" fill="#8adefd"/><path d="m279.917 497c-4.143 0-7.5-3.358-7.5-7.5v-30c0-4.142 3.357-7.5 7.5-7.5s7.5 3.358 7.5 7.5v30c0 4.142-3.357 7.5-7.5 7.5z" fill="#8adefd"/><path d="m217.083 497c-4.143 0-7.5-3.358-7.5-7.5v-30c0-4.142 3.357-7.5 7.5-7.5s7.5 3.358 7.5 7.5v30c0 4.142-3.357 7.5-7.5 7.5z" fill="#8adefd"/><path d="m342.75 497c-4.143 0-7.5-3.358-7.5-7.5v-30c0-4.142 3.357-7.5 7.5-7.5s7.5 3.358 7.5 7.5v30c0 4.142-3.357 7.5-7.5 7.5z" fill="#8adefd"/><path d="m405.583 497c-4.143 0-7.5-3.358-7.5-7.5v-30c0-4.142 3.357-7.5 7.5-7.5s7.5 3.358 7.5 7.5v30c0 4.142-3.357 7.5-7.5 7.5z" fill="#58c4fe"/><path d="m91.417 497c-4.143 0-7.5-3.358-7.5-7.5v-30c0-4.142 3.357-7.5 7.5-7.5s7.5 3.358 7.5 7.5v30c0 4.142-3.357 7.5-7.5 7.5z" fill="#8adefd"/><path d="m154.25 497c-4.143 0-7.5-3.358-7.5-7.5v-30c0-4.142 3.357-7.5 7.5-7.5s7.5 3.358 7.5 7.5v30c0 4.142-3.357 7.5-7.5 7.5z" fill="#8adefd"/></g></svg>