<svg id="Layer_3" height="512" viewBox="0 0 64 64" width="512" xmlns="http://www.w3.org/2000/svg" data-name="Layer 3"><path d="m44.95 13.566a14 14 0 0 0 -15.408 5.4 6.986 6.986 0 0 0 -10.492 5.227 10.005 10.005 0 0 0 -8 8.763 10 10 0 0 1 -1.8-19.564 13.987 13.987 0 0 1 25.208-5.422 6.986 6.986 0 0 1 10.492 5.223z" fill="#939393"/><path d="m52 44a10 10 0 0 0 2.748-19.608 13.987 13.987 0 0 0 -25.206-5.422 6.986 6.986 0 0 0 -10.492 5.223 10 10 0 0 0 1.95 19.807z" fill="#b5b5b5"/><path d="m57.999 2-17.999 18h7l-7 14 19-19h-7z" fill="#f9d266"/><path d="m37.999 30-17.999 18h7l-7 14 20-21h-7z" fill="#fce797"/><g fill="#e2e7f6"><path d="m3.172 41h5.657v2h-5.657z" transform="matrix(.707 -.707 .707 .707 -27.941 16.544)"/><path d="m.757 49h8.485v2h-8.485z" transform="matrix(.707 -.707 .707 .707 -33.891 18.18)"/><path d="m7.343 50h11.314v2h-11.314z" transform="matrix(.707 -.707 .707 .707 -32.255 24.13)"/><path d="m.964 58.5h7.071v2h-7.071z" transform="matrix(.707 -.707 .707 .707 -40.755 20.609)"/><path d="m35.55 50.5h9.899v2h-9.899z" transform="matrix(.707 -.707 .707 .707 -24.554 43.722)"/><path d="m28.964 58.5h7.071v2h-7.071z" transform="matrix(.707 -.707 .707 .707 -32.554 40.408)"/><path d="m39.722 51.5h15.556v2h-15.556z" transform="matrix(.707 -.707 .707 .707 -23.211 48.964)"/><path d="m44.757 58h8.485v2h-8.485z" transform="matrix(.707 -.707 .707 .707 -27.368 51.929)"/><path d="m53.55 48.5h9.899v2h-9.899z" transform="matrix(.707 -.707 .707 .707 -17.868 55.864)"/><path d="m10.757 56h8.485v2h-8.485z" transform="matrix(.707 -.707 .707 .707 -35.912 27.302)"/></g></svg>